<?xml version="1.0" standalone="no"?>
<!DOCTYPE svg PUBLIC "-//W3C//DTD SVG 20010904//EN"
 "http://www.w3.org/TR/2001/REC-SVG-20010904/DTD/svg10.dtd">
<svg version="1.0" xmlns="http://www.w3.org/2000/svg"
 width="512.000000pt" height="512.000000pt" viewBox="0 0 512.000000 512.000000"
 preserveAspectRatio="xMidYMid meet">
<metadata>
Created by potrace 1.14, written by Peter Selinger 2001-2017
</metadata>
<g transform="translate(0.000000,512.000000) scale(0.100000,-0.100000)"
fill="#000000" stroke="none">
<path d="M3177 4073 c-2 -1 -38 -3 -81 -4 -201 -5 -522 -75 -755 -163 -403
-154 -780 -402 -1096 -720 -49 -50 -108 -114 -130 -141 -22 -28 -43 -52 -46
-55 -11 -10 -95 -127 -139 -195 -152 -231 -237 -452 -284 -737 -27 -165 -24
-405 8 -528 2 -8 7 -30 11 -47 4 -19 12 -30 18 -26 5 3 7 1 4 -4 -8 -13 11
-72 31 -95 8 -10 12 -18 8 -18 -8 0 36 -70 67 -107 63 -76 95 -107 149 -148
33 -25 64 -42 69 -39 5 3 9 0 9 -6 0 -11 130 -76 217 -109 36 -13 53 -15 53
-8 0 7 4 6 9 -2 5 -8 15 -15 23 -17 7 -1 47 -9 88 -18 116 -26 142 -28 330
-29 165 -1 249 4 330 20 19 4 41 6 48 5 6 -2 12 1 12 5 0 5 15 9 33 10 51 3
102 14 105 24 2 5 8 7 13 3 5 -3 24 -1 42 5 17 5 73 22 122 36 50 15 104 33
120 40 17 7 42 17 58 20 24 6 26 10 15 24 -12 14 -11 14 4 3 14 -11 23 -11 55
3 21 9 47 21 58 25 81 32 275 132 270 140 -4 6 1 7 11 3 13 -5 15 -3 9 7 -5 8
-4 11 3 6 10 -6 204 100 210 116 2 4 7 8 12 8 11 0 134 82 138 93 2 4 10 7 18
7 8 0 14 4 14 9 0 5 8 12 18 15 10 4 27 14 38 24 10 9 33 26 49 36 33 21 293
214 311 231 6 5 26 21 44 35 18 14 39 31 46 37 7 7 17 13 22 13 6 0 12 3 14 8
3 6 79 72 141 122 34 28 62 51 131 113 38 34 77 69 87 77 21 20 171 155 214
195 18 17 73 66 121 110 49 44 126 116 171 160 68 68 82 86 88 122 8 54 -7 83
-43 83 -34 0 -56 -15 -162 -110 -47 -42 -103 -92 -124 -111 -22 -19 -49 -43
-61 -54 -13 -11 -51 -45 -86 -75 -34 -30 -73 -65 -87 -77 -76 -70 -162 -144
-222 -193 -22 -18 -50 -42 -63 -53 -13 -12 -43 -38 -67 -57 -24 -19 -85 -69
-136 -110 -51 -41 -104 -84 -120 -95 -15 -11 -46 -35 -68 -54 -69 -57 -270
-207 -296 -221 -14 -7 -32 -19 -40 -27 -8 -8 -30 -24 -49 -36 -19 -12 -46 -30
-60 -39 -14 -10 -39 -24 -54 -33 -16 -9 -25 -21 -21 -27 4 -7 3 -8 -4 -4 -14
9 -164 -78 -154 -89 4 -5 2 -5 -5 -1 -7 4 -32 -5 -55 -20 -24 -15 -44 -27 -45
-26 -2 1 -40 -16 -85 -37 -77 -35 -146 -65 -158 -67 -29 -5 -59 -17 -56 -23 2
-3 -6 -7 -17 -7 -12 -1 -53 -11 -92 -23 -68 -21 -83 -25 -134 -36 -113 -22
-391 -24 -391 -2 0 4 -8 7 -17 7 -22 0 -122 46 -145 67 -9 8 -22 12 -29 7 -7
-4 -10 -3 -5 4 3 6 -5 19 -18 29 -33 26 -103 127 -116 169 -7 20 -16 31 -22
28 -7 -4 -8 -2 -4 5 4 6 3 26 -3 44 -6 17 -13 46 -17 62 -9 44 -12 236 -3 266
4 17 3 32 -4 39 -9 10 -9 11 1 6 8 -5 12 -1 12 12 0 33 40 175 72 257 78 199
227 445 419 690 51 66 98 125 104 131 5 6 33 37 60 69 169 198 435 429 655
569 156 99 415 211 557 241 253 54 380 -26 367 -233 -5 -93 -34 -183 -104
-327 -35 -71 -57 -130 -55 -145 1 -14 3 -31 4 -37 2 -19 55 -43 94 -43 109 0
206 68 262 183 124 260 76 480 -146 661 -62 51 -197 112 -289 131 -95 20 -134
26 -214 31 -108 7 -216 10 -219 7z m-2047 -2933 c0 -5 -5 -10 -11 -10 -5 0 -7
5 -4 10 3 6 8 10 11 10 2 0 4 -4 4 -10z m320 4 c0 -8 -19 -13 -24 -6 -3 5 1 9
9 9 8 0 15 -2 15 -3z m255 -13 c3 -5 2 -12 -3 -15 -5 -3 -9 1 -9 9 0 17 3 19
12 6z m141 -46 c-1 -8 -5 -17 -8 -21 -5 -4 -4 16 1 34 3 9 9 -1 7 -13z m317
-40 c-3 -9 -8 -14 -10 -11 -3 3 -2 9 2 15 9 16 15 13 8 -4z m-38 -44 c3 -5 2
-12 -3 -15 -5 -3 -9 1 -9 9 0 17 3 19 12 6z"/>
</g>
</svg>
